<svg xmlns="http://www.w3.org/2000/svg" width="19" height="18" viewBox="0 0 19 18" fill="none">
  <path d="M0 0.75C0 0.335786 0.335786 0 0.75 0H2.37846C3.25256 0 3.99261 0.644984 4.11205 1.51088L4.17955 2.00024C8.75911 2.01263 13.2281 2.49872 17.5398 3.41236C17.9395 3.49706 18.1979 3.88613 18.1209 4.2874C17.7145 6.40548 17.1717 8.47515 16.502 10.4869C16.4 10.7933 16.1134 11 15.7904 11H5C4.88567 11 4.77351 11.0076 4.66393 11.0223C3.78545 11.14 3.05092 11.7153 2.70796 12.5H16.25C16.6642 12.5 17 12.8358 17 13.25C17 13.6642 16.6642 14 16.25 14H1.75948C1.55068 14 1.35133 13.913 1.2094 13.7598C1.06747 13.6067 0.995799 13.4013 1.01164 13.1931C1.13566 11.5628 2.23526 10.2069 3.72829 9.70657L2.62612 1.71584C2.60906 1.59214 2.50333 1.5 2.37846 1.5H0.75C0.335786 1.5 0 1.16421 0 0.75Z" fill="#f0ede8"/>
  <path d="M5 16.5C5 17.3284 4.32843 18 3.5 18C2.67157 18 2 17.3284 2 16.5C2 15.6716 2.67157 15 3.5 15C4.32843 15 5 15.6716 5 16.5Z" fill="#f0ede8"/>
  <path d="M14.5 18C15.3284 18 16 17.3284 16 16.5C16 15.6716 15.3284 15 14.5 15C13.6716 15 13 15.6716 13 16.5C13 17.3284 13.6716 18 14.5 18Z" fill="#f0ede8"/>
</svg>